<?xml version="1.0" standalone="no"?>
<!DOCTYPE svg PUBLIC "-//W3C//DTD SVG 20010904//EN"
 "http://www.w3.org/TR/2001/REC-SVG-20010904/DTD/svg10.dtd">
<svg version="1.0" xmlns="http://www.w3.org/2000/svg"
 width="48.000000pt" height="48.000000pt" viewBox="0 0 48.000000 48.000000"
 preserveAspectRatio="xMidYMid meet">

<g transform="translate(0.000000,48.000000) scale(0.100000,-0.100000)"
fill="#FFFFFF" stroke="#FFFFFF">
<path d="M360 435 l-33 -34 -126 -4 -126 -3 126 -2 125 -2 34 35 c35 36 67 44
88 23 21 -21 13 -53 -23 -88 l-35 -34 2 -135 2 -136 3 136 4 136 34 33 c38 37
44 69 19 94 -25 25 -57 19 -94 -19z"/>
<path d="M48 383 c7 -3 16 -2 19 1 4 3 -2 6 -13 5 -11 0 -14 -3 -6 -6z"/>
<path d="M17 373 c-14 -13 -6 -53 12 -63 11 -5 39 -9 63 -8 39 1 40 2 8 5 -75
8 -82 12 -78 43 5 32 5 33 -5 23z"/>
<path d="M184 293 l29 -5 -54 -54 c-42 -42 -60 -54 -85 -54 -32 0 -64 -25 -64
-51 0 -18 19 -39 34 -39 6 0 3 5 -6 11 -39 22 -14 69 36 69 24 0 44 13 88 57
32 32 58 61 58 65 0 4 -15 7 -32 7 -33 -2 -33 -2 -4 -6z"/>
<path d="M227 162 c-44 -44 -57 -64 -57 -88 0 -61 -51 -75 -74 -19 -8 19 -21
35 -28 35 -9 0 -9 -3 -2 -8 6 -4 17 -20 25 -37 8 -16 22 -31 32 -33 28 -6 57
27 57 62 0 25 11 43 54 85 l53 52 7 -47 c3 -26 6 -62 6 -81 0 -46 16 -73 43
-73 24 0 47 17 47 34 0 6 -5 3 -11 -6 -5 -10 -21 -18 -34 -18 -28 0 -31 8 -40
123 -4 42 -10 77 -14 77 -3 0 -32 -26 -64 -58z"/>
</g>
</svg>
